<svg xmlns="http://www.w3.org/2000/svg" xmlns:xlink="http://www.w3.org/1999/xlink" contentStyleType="text/css" data-diagram-type="CLASS" height="1064px" preserveAspectRatio="none" style="width:988px;height:1064px;background:#FFFFFF;" version="1.1" viewBox="0 0 988 1064" width="988px" zoomAndPan="magnify"><defs/><g><!--class users--><g class="entity" data-entity="users" data-source-line="30" data-uid="ent0002" id="entity_users"><rect fill="#F1F1F1" height="145.7813" rx="2.5" ry="2.5" style="stroke:#181818;stroke-width:0.5;" width="306.0684" x="147.5" y="7"/><ellipse cx="277.3691" cy="23" fill="#ADD1B2" rx="11" ry="11" style="stroke:#181818;stroke-width:1;"/><path d="M281.4785,29 L273.7598,29 L273.7598,16.6094 L281.4785,16.6094 L281.4785,18.7656 L276.2129,18.7656 L276.2129,21.4375 L280.9785,21.4375 L280.9785,23.5938 L276.2129,23.5938 L276.2129,26.8438 L281.4785,26.8438 L281.4785,29 Z " fill="#000000"/><text fill="#000000" font-family="Arial" font-size="14" lengthAdjust="spacing" textLength="37.8301" x="297.8691" y="27.8467">users</text><line style="stroke:#181818;stroke-width:0.5;" x1="148.5" x2="452.5684" y1="39" y2="39"/><text fill="#000000" font-family="Arial" font-size="14" lengthAdjust="spacing" textLength="184.8711" x="153.5" y="55.9951">id              : INTEGER &#171;PK&#187;</text><line style="stroke:#181818;stroke-width:1;" x1="148.5" x2="452.5684" y1="63.2969" y2="63.2969"/><text fill="#000000" font-family="Arial" font-size="14" lengthAdjust="spacing" textLength="294.0684" x="153.5" y="80.292">name            : TEXT &#171;UNIQUE, NOT NULL&#187;</text><text fill="#000000" font-family="Arial" font-size="14" lengthAdjust="spacing" textLength="165.3887" x="153.5" y="96.5889">password_hash   : TEXT</text><text fill="#000000" font-family="Arial" font-size="14" lengthAdjust="spacing" textLength="151.4502" x="153.5" y="112.8857">favorite_driver : TEXT</text><text fill="#000000" font-family="Arial" font-size="14" lengthAdjust="spacing" textLength="191.7139" x="153.5" y="129.1826">created_at      : TIMESTAMP</text><text fill="#000000" font-family="Arial" font-size="14" lengthAdjust="spacing" textLength="196.2939" x="153.5" y="145.4795">updated_at      : TIMESTAMP</text></g><!--class login_events--><g class="entity" data-entity="login_events" data-source-line="40" data-uid="ent0003" id="entity_login_events"><rect fill="#F1F1F1" height="96.8906" rx="2.5" ry="2.5" style="stroke:#181818;stroke-width:0.5;" width="264.7793" x="7" y="245.5"/><ellipse cx="91.0034" cy="261.5" fill="#ADD1B2" rx="11" ry="11" style="stroke:#181818;stroke-width:1;"/><path d="M95.1128,267.5 L87.394,267.5 L87.394,255.1094 L95.1128,255.1094 L95.1128,257.2656 L89.8472,257.2656 L89.8472,259.9375 L94.6128,259.9375 L94.6128,262.0938 L89.8472,262.0938 L89.8472,265.3438 L95.1128,265.3438 L95.1128,267.5 Z " fill="#000000"/><text fill="#000000" font-family="Arial" font-size="14" lengthAdjust="spacing" textLength="88.2725" x="111.5034" y="266.3467">login_events</text><line style="stroke:#181818;stroke-width:0.5;" x1="8" x2="270.7793" y1="277.5" y2="277.5"/><text fill="#000000" font-family="Arial" font-size="14" lengthAdjust="spacing" textLength="158.1699" x="13" y="294.4951">id        : INTEGER &#171;PK&#187;</text><line style="stroke:#181818;stroke-width:1;" x1="8" x2="270.7793" y1="301.7969" y2="301.7969"/><text fill="#000000" font-family="Arial" font-size="14" lengthAdjust="spacing" textLength="252.7793" x="13" y="318.792">user_id   : INTEGER &#171;FK, NOT NULL&#187;</text><text fill="#000000" font-family="Arial" font-size="14" lengthAdjust="spacing" textLength="154.3828" x="13" y="335.0889">login_at  : TIMESTAMP</text></g><!--class drivers--><g class="entity" data-entity="drivers" data-source-line="47" data-uid="ent0004" id="entity_drivers"><rect fill="#F1F1F1" height="129.4844" rx="2.5" ry="2.5" style="stroke:#181818;stroke-width:0.5;" width="308.2627" x="307.5" y="229.5"/><ellipse cx="433.1411" cy="245.5" fill="#ADD1B2" rx="11" ry="11" style="stroke:#181818;stroke-width:1;"/><path d="M437.2505,251.5 L429.5317,251.5 L429.5317,239.1094 L437.2505,239.1094 L437.2505,241.2656 L431.9849,241.2656 L431.9849,243.9375 L436.7505,243.9375 L436.7505,246.0938 L431.9849,246.0938 L431.9849,249.3438 L437.2505,249.3438 L437.2505,251.5 Z " fill="#000000"/><text fill="#000000" font-family="Arial" font-size="14" lengthAdjust="spacing" textLength="48.4805" x="453.6411" y="250.3467">drivers</text><line style="stroke:#181818;stroke-width:0.5;" x1="308.5" x2="614.7627" y1="261.5" y2="261.5"/><text fill="#000000" font-family="Arial" font-size="14" lengthAdjust="spacing" textLength="175.9707" x="313.5" y="278.4951">id            : INTEGER &#171;PK&#187;</text><line style="stroke:#181818;stroke-width:1;" x1="308.5" x2="614.7627" y1="285.7969" y2="285.7969"/><text fill="#000000" font-family="Arial" font-size="14" lengthAdjust="spacing" textLength="296.2627" x="313.5" y="302.792">driver_code   : TEXT &#171;UNIQUE, NOT NULL&#187;</text><text fill="#000000" font-family="Arial" font-size="14" lengthAdjust="spacing" textLength="135.2422" x="313.5" y="319.0889">full_name     : TEXT</text><text fill="#000000" font-family="Arial" font-size="14" lengthAdjust="spacing" textLength="125.5283" x="313.5" y="335.3857">team          : TEXT</text><text fill="#000000" font-family="Arial" font-size="14" lengthAdjust="spacing" textLength="187.3936" x="313.5" y="351.6826">updated_at    : TIMESTAMP</text></g><!--class tracks--><g class="entity" data-entity="tracks" data-source-line="56" data-uid="ent0005" id="entity_tracks"><rect fill="#F1F1F1" height="162.0781" rx="2.5" ry="2.5" style="stroke:#181818;stroke-width:0.5;" width="253.4795" x="651" y="213"/><ellipse cx="752.0283" cy="229" fill="#ADD1B2" rx="11" ry="11" style="stroke:#181818;stroke-width:1;"/><path d="M756.1377,235 L748.4189,235 L748.4189,222.6094 L756.1377,222.6094 L756.1377,224.7656 L750.8721,224.7656 L750.8721,227.4375 L755.6377,227.4375 L755.6377,229.5938 L750.8721,229.5938 L750.8721,232.8438 L756.1377,232.8438 L756.1377,235 Z " fill="#000000"/><text fill="#000000" font-family="Arial" font-size="14" lengthAdjust="spacing" textLength="42.9229" x="772.5283" y="233.8467">tracks</text><line style="stroke:#181818;stroke-width:0.5;" x1="652" x2="903.4795" y1="245" y2="245"/><text fill="#000000" font-family="Arial" font-size="14" lengthAdjust="spacing" textLength="175.9707" x="657" y="261.9951">id            : INTEGER &#171;PK&#187;</text><line style="stroke:#181818;stroke-width:1;" x1="652" x2="903.4795" y1="269.2969" y2="269.2969"/><text fill="#000000" font-family="Arial" font-size="14" lengthAdjust="spacing" textLength="238.7178" x="657" y="286.292">year          : INTEGER &#171;NOT NULL&#187;</text><text fill="#000000" font-family="Arial" font-size="14" lengthAdjust="spacing" textLength="182.082" x="657" y="302.5889">round_number  : INTEGER</text><text fill="#000000" font-family="Arial" font-size="14" lengthAdjust="spacing" textLength="241.4795" x="657" y="318.8857">event_name    : TEXT &#171;NOT NULL&#187;</text><text fill="#000000" font-family="Arial" font-size="14" lengthAdjust="spacing" textLength="129.3975" x="657" y="335.1826">country       : TEXT</text><text fill="#000000" font-family="Arial" font-size="14" lengthAdjust="spacing" textLength="133.3555" x="657" y="351.4795">circuit_key   : TEXT</text><text fill="#000000" font-family="Arial" font-size="14" lengthAdjust="spacing" textLength="187.3936" x="657" y="367.7764">updated_at    : TIMESTAMP</text></g><!--class sessions--><g class="entity" data-entity="sessions" data-source-line="67" data-uid="ent0006" id="entity_sessions"><rect fill="#F1F1F1" height="194.6719" rx="2.5" ry="2.5" style="stroke:#181818;stroke-width:0.5;" width="259.6182" x="524.5" y="435"/><ellipse cx="620.5005" cy="451" fill="#ADD1B2" rx="11" ry="11" style="stroke:#181818;stroke-width:1;"/><path d="M624.6099,457 L616.8911,457 L616.8911,444.6094 L624.6099,444.6094 L624.6099,446.7656 L619.3442,446.7656 L619.3442,449.4375 L624.1099,449.4375 L624.1099,451.5938 L619.3442,451.5938 L619.3442,454.8438 L624.6099,454.8438 L624.6099,457 Z " fill="#000000"/><text fill="#000000" font-family="Arial" font-size="14" lengthAdjust="spacing" textLength="59.1172" x="641.0005" y="455.8467">sessions</text><line style="stroke:#181818;stroke-width:0.5;" x1="525.5" x2="783.1182" y1="467" y2="467"/><text fill="#000000" font-family="Arial" font-size="14" lengthAdjust="spacing" textLength="184.8711" x="530.5" y="483.9951">id              : INTEGER &#171;PK&#187;</text><line style="stroke:#181818;stroke-width:1;" x1="525.5" x2="783.1182" y1="491.2969" y2="491.2969"/><text fill="#000000" font-family="Arial" font-size="14" lengthAdjust="spacing" textLength="247.6182" x="530.5" y="508.292">year            : INTEGER &#171;NOT NULL&#187;</text><text fill="#000000" font-family="Arial" font-size="14" lengthAdjust="spacing" textLength="225.9277" x="530.5" y="524.5889">event           : TEXT &#171;NOT NULL&#187;</text><text fill="#000000" font-family="Arial" font-size="14" lengthAdjust="spacing" textLength="247.4883" x="530.5" y="540.8857">session_code    : TEXT &#171;NOT NULL&#187;</text><text fill="#000000" font-family="Arial" font-size="14" lengthAdjust="spacing" textLength="197.4697" x="530.5" y="557.1826">session_info    : TEXT (JSON)</text><text fill="#000000" font-family="Arial" font-size="14" lengthAdjust="spacing" textLength="195.2207" x="530.5" y="573.4795">results_json    : TEXT (JSON)</text><text fill="#000000" font-family="Arial" font-size="14" lengthAdjust="spacing" textLength="190.0117" x="530.5" y="589.7764">laps_json       : TEXT (JSON)</text><text fill="#000000" font-family="Arial" font-size="14" lengthAdjust="spacing" textLength="207.498" x="530.5" y="606.0732">telemetry_json  : TEXT (JSON)</text><text fill="#000000" font-family="Arial" font-size="14" lengthAdjust="spacing" textLength="196.2939" x="530.5" y="622.3701">updated_at      : TIMESTAMP</text></g><!--class sync_state--><g class="entity" data-entity="sync_state" data-source-line="80" data-uid="ent0007" id="entity_sync_state"><rect fill="#F1F1F1" height="129.4844" rx="2.5" ry="2.5" style="stroke:#181818;stroke-width:0.5;" width="254.9287" x="650" y="15.5"/><ellipse cx="735.9072" cy="31.5" fill="#ADD1B2" rx="11" ry="11" style="stroke:#181818;stroke-width:1;"/><path d="M740.0166,37.5 L732.2979,37.5 L732.2979,25.1094 L740.0166,25.1094 L740.0166,27.2656 L734.751,27.2656 L734.751,29.9375 L739.5166,29.9375 L739.5166,32.0938 L734.751,32.0938 L734.751,35.3438 L740.0166,35.3438 L740.0166,37.5 Z " fill="#000000"/><text fill="#000000" font-family="Arial" font-size="14" lengthAdjust="spacing" textLength="74.6143" x="756.4072" y="36.3467">sync_state</text><line style="stroke:#181818;stroke-width:0.5;" x1="651" x2="903.9287" y1="47.5" y2="47.5"/><text fill="#000000" font-family="Arial" font-size="14" lengthAdjust="spacing" textLength="212.2285" x="656" y="64.4951">year                : INTEGER &#171;PK&#187;</text><line style="stroke:#181818;stroke-width:1;" x1="651" x2="903.9287" y1="71.7969" y2="71.7969"/><text fill="#000000" font-family="Arial" font-size="14" lengthAdjust="spacing" textLength="238.9912" x="656" y="88.792">session_codes_json  : TEXT (JSON)</text><text fill="#000000" font-family="Arial" font-size="14" lengthAdjust="spacing" textLength="242.9287" x="656" y="105.0889">synced_events_json  : TEXT (JSON)</text><text fill="#000000" font-family="Arial" font-size="14" lengthAdjust="spacing" textLength="189.3828" x="656" y="121.3857">complete            : INTEGER</text><text fill="#000000" font-family="Arial" font-size="14" lengthAdjust="spacing" textLength="211.3809" x="656" y="137.6826">last_sync_at        : TIMESTAMP</text></g><g class="entity" data-entity="GMN8" data-source-line="93" data-uid="ent0009" id="entity_GMN8"><path d="M819.5,521.5 L819.5,543.1406 A0,0 0 0 0 819.5,543.1406 L981.2471,543.1406 A0,0 0 0 0 981.2471,543.1406 L981.2471,531.5 L971.2471,521.5 L865.75,521.5 L861.75,375.08 L857.75,521.5 L819.5,521.5 A0,0 0 0 0 819.5,521.5" fill="#FFFDE7" style="stroke:#888888;stroke-width:0.5;"/><path d="M971.2471,521.5 L971.2471,531.5 L981.2471,531.5 L971.2471,521.5" fill="#FFFDE7" style="stroke:#888888;stroke-width:0.5;"/><text fill="#000000" font-family="Arial" font-size="10" lengthAdjust="spacing" textLength="140.7471" x="825.5" y="535.7822">UNIQUE (year, event_name)</text></g><g class="entity" data-entity="GMN11" data-source-line="97" data-uid="ent0012" id="entity_GMN11"><path d="M554,690 L554,711.6406 A0,0 0 0 0 554,711.6406 L754.8779,711.6406 A0,0 0 0 0 754.8779,711.6406 L754.8779,700 L744.8779,690 L658.5,690 L654.5,630.03 L650.5,690 L554,690 A0,0 0 0 0 554,690" fill="#FFFDE7" style="stroke:#888888;stroke-width:0.5;"/><path d="M744.8779,690 L744.8779,700 L754.8779,700 L744.8779,690" fill="#FFFDE7" style="stroke:#888888;stroke-width:0.5;"/><text fill="#000000" font-family="Arial" font-size="10" lengthAdjust="spacing" textLength="179.8779" x="560" y="704.2822">UNIQUE (year, event, session_code)</text></g><!--link users to login_events--><g class="link" data-entity-1="users" data-entity-2="login_events" data-source-line="107" data-uid="lnk14" id="link_users_login_events"><path codeLine="107" d="M209.75,161.05 C209.75,191.56 209.75,200.18 209.75,227.48" fill="none" id="users-login_events" style="stroke:#444444;stroke-width:1;"/><line style="stroke:#444444;stroke-width:1;" x1="205.75" x2="213.75" y1="157.05" y2="157.05"/><line style="stroke:#444444;stroke-width:1;" x1="205.75" x2="213.75" y1="160.05" y2="160.05"/><line style="stroke:#444444;stroke-width:1;" x1="209.75" x2="209.75" y1="161.05" y2="153.05"/><line style="stroke:#444444;stroke-width:1;" x1="209.75" x2="215.75" y1="237.48" y2="245.48"/><line style="stroke:#444444;stroke-width:1;" x1="209.75" x2="203.75" y1="237.48" y2="245.48"/><line style="stroke:#444444;stroke-width:1;" x1="209.75" x2="209.75" y1="237.48" y2="245.48"/><ellipse cx="209.75" cy="231.48" fill="none" rx="4" ry="4" style="stroke:#444444;stroke-width:1;"/><text fill="#000000" font-family="Arial" font-size="13" lengthAdjust="spacing" textLength="48.8135" x="160.75" y="195.3269">records</text></g><!--link users to drivers--><g class="link" data-entity-1="users" data-entity-2="drivers" data-source-line="110" data-uid="lnk15" id="link_users_drivers"><path codeLine="110" d="M380.5,171.05 C380.5,195.75 380.5,190.14 380.5,214.16" fill="none" id="users-drivers" style="stroke:#444444;stroke-width:1;stroke-dasharray:7,7;"/><line style="stroke:#444444;stroke-width:1;" x1="380.5" x2="374.5" y1="161.05" y2="153.05"/><line style="stroke:#444444;stroke-width:1;" x1="380.5" x2="386.5" y1="161.05" y2="153.05"/><line style="stroke:#444444;stroke-width:1;" x1="380.5" x2="380.5" y1="161.05" y2="153.05"/><ellipse cx="380.5" cy="167.05" fill="none" rx="4" ry="4" style="stroke:#444444;stroke-width:1;"/><line style="stroke:#444444;stroke-width:1;" x1="380.5" x2="380.5" y1="218.16" y2="229.16"/><ellipse cx="380.5" cy="218.16" fill="none" rx="4" ry="4" style="stroke:#444444;stroke-width:1;"/><line style="stroke:#444444;stroke-width:1;" x1="384.5" x2="376.5" y1="225.16" y2="225.16"/><text fill="#000000" font-family="Arial" font-size="13" lengthAdjust="spacing" textLength="40.3076" x="339.7646" y="187.1769">favors</text></g><!--link tracks to sessions--><g class="link" data-entity-1="tracks" data-entity-2="sessions" data-source-line="111" data-uid="lnk16" id="link_tracks_sessions"><path codeLine="111" d="M717.75,383.08 C717.75,402.25 717.75,396.9 717.75,416.73" fill="none" id="tracks-sessions" style="stroke:#444444;stroke-width:1;stroke-dasharray:7,7;"/><line style="stroke:#444444;stroke-width:1;" x1="713.75" x2="721.75" y1="379.08" y2="379.08"/><line style="stroke:#444444;stroke-width:1;" x1="713.75" x2="721.75" y1="382.08" y2="382.08"/><line style="stroke:#444444;stroke-width:1;" x1="717.75" x2="717.75" y1="383.08" y2="375.08"/><line style="stroke:#444444;stroke-width:1;" x1="717.75" x2="723.75" y1="426.73" y2="434.73"/><line style="stroke:#444444;stroke-width:1;" x1="717.75" x2="711.75" y1="426.73" y2="434.73"/><line style="stroke:#444444;stroke-width:1;" x1="717.75" x2="717.75" y1="426.73" y2="434.73"/><ellipse cx="717.75" cy="420.73" fill="none" rx="4" ry="4" style="stroke:#444444;stroke-width:1;"/><text fill="#000000" font-family="Arial" font-size="13" lengthAdjust="spacing" textLength="34.8359" x="682.0146" y="400.9669">hosts</text></g><!--link sync_state to tracks--><g class="link" data-entity-1="sync_state" data-entity-2="tracks" data-source-line="112" data-uid="lnk17" id="link_sync_state_tracks"><path codeLine="112" d="M777.5,152.79 C777.5,174.19 777.5,172.28 777.5,194.76" fill="none" id="sync_state-tracks" style="stroke:#444444;stroke-width:1;stroke-dasharray:7,7;"/><line style="stroke:#444444;stroke-width:1;" x1="773.5" x2="781.5" y1="148.79" y2="148.79"/><line style="stroke:#444444;stroke-width:1;" x1="773.5" x2="781.5" y1="151.79" y2="151.79"/><line style="stroke:#444444;stroke-width:1;" x1="777.5" x2="777.5" y1="152.79" y2="144.79"/><line style="stroke:#444444;stroke-width:1;" x1="777.5" x2="783.5" y1="204.76" y2="212.76"/><line style="stroke:#444444;stroke-width:1;" x1="777.5" x2="771.5" y1="204.76" y2="212.76"/><line style="stroke:#444444;stroke-width:1;" x1="777.5" x2="777.5" y1="204.76" y2="212.76"/><ellipse cx="777.5" cy="198.76" fill="none" rx="4" ry="4" style="stroke:#444444;stroke-width:1;"/><text fill="#000000" font-family="Arial" font-size="13" lengthAdjust="spacing" textLength="92.7075" x="684.7646" y="174.8369">covers year of</text></g><g class="legend" data-source-line="117"><rect fill="#DDDDDD" height="315.3438" rx="7.5" ry="7.5" style="stroke:#000000;stroke-width:1;" width="387.5352" x="574.7119" y="729.6406"/><text fill="#000000" font-family="Arial" font-size="14" font-weight="bold" lengthAdjust="spacing" textLength="107.8779" x="579.7119" y="747.6357">Field Markers</text><text fill="#000000" font-family="Arial" font-size="14" font-weight="bold" lengthAdjust="spacing" textLength="55.9932" x="584.5859" y="765.9326">Marker</text><text fill="#000000" font-family="Arial" font-size="14" font-weight="bold" lengthAdjust="spacing" textLength="67.6279" x="690.3311" y="765.9326">Meaning</text><text fill="#000000" font-family="Arial" font-size="14" lengthAdjust="spacing" textLength="34.7539" x="584.1621" y="782.2295">&#171;PK&#187;</text><text fill="#000000" font-family="Arial" font-size="14" lengthAdjust="spacing" textLength="83.8018" x="689.9072" y="782.2295">Primary key</text><text fill="#000000" font-family="Arial" font-size="14" lengthAdjust="spacing" textLength="34.3643" x="584.1621" y="798.5264">&#171;FK&#187;</text><text fill="#000000" font-family="Arial" font-size="14" lengthAdjust="spacing" textLength="234.3564" x="689.9072" y="798.5264">Foreign key (constraint enforced)</text><text fill="#000000" font-family="Arial" font-size="14" lengthAdjust="spacing" textLength="72.0918" x="584.1621" y="814.8232">&#171;UNIQUE&#187;</text><text fill="#000000" font-family="Arial" font-size="14" lengthAdjust="spacing" textLength="124.3389" x="689.9072" y="814.8232">Unique constraint</text><text fill="#000000" font-family="Arial" font-size="14" lengthAdjust="spacing" textLength="87.9443" x="584.1621" y="831.1201">&#171;NOT NULL&#187;</text><text fill="#000000" font-family="Arial" font-size="14" lengthAdjust="spacing" textLength="131.0791" x="689.9072" y="831.1201">Mandatory column</text><text fill="#000000" font-family="Arial" font-size="14" lengthAdjust="spacing" textLength="45.4316" x="584.1621" y="847.417">(JSON)</text><text fill="#000000" font-family="Arial" font-size="14" lengthAdjust="spacing" textLength="245.3828" x="689.9072" y="847.417">Value stored as JSON-encoded text</text><line style="stroke:#000000;stroke-width:1;" x1="579.7119" x2="939.7402" y1="752.9375" y2="752.9375"/><line style="stroke:#000000;stroke-width:1;" x1="579.7119" x2="939.7402" y1="769.2344" y2="769.2344"/><line style="stroke:#000000;stroke-width:1;" x1="579.7119" x2="939.7402" y1="785.5313" y2="785.5313"/><line style="stroke:#000000;stroke-width:1;" x1="579.7119" x2="939.7402" y1="801.8281" y2="801.8281"/><line style="stroke:#000000;stroke-width:1;" x1="579.7119" x2="939.7402" y1="818.125" y2="818.125"/><line style="stroke:#000000;stroke-width:1;" x1="579.7119" x2="939.7402" y1="834.4219" y2="834.4219"/><line style="stroke:#000000;stroke-width:1;" x1="579.7119" x2="939.7402" y1="850.7188" y2="850.7188"/><line style="stroke:#000000;stroke-width:1;" x1="579.7119" x2="579.7119" y1="752.9375" y2="850.7188"/><line style="stroke:#000000;stroke-width:1;" x1="685.457" x2="685.457" y1="752.9375" y2="850.7188"/><line style="stroke:#000000;stroke-width:1;" x1="939.7402" x2="939.7402" y1="752.9375" y2="850.7188"/><text fill="#000000" font-family="Arial" font-size="14" lengthAdjust="spacing" textLength="4.4502" x="579.7119" y="865.7139">&#160;</text><text fill="#000000" font-family="Arial" font-size="14" font-weight="bold" lengthAdjust="spacing" textLength="145.1064" x="579.7119" y="882.0107">Relationship Lines</text><text fill="#000000" font-family="Arial" font-size="14" font-weight="bold" lengthAdjust="spacing" textLength="40.1953" x="584.5859" y="900.3076">Style</text><text fill="#000000" font-family="Arial" font-size="14" font-weight="bold" lengthAdjust="spacing" textLength="67.6279" x="694.0635" y="900.3076">Meaning</text><text fill="#000000" font-family="Arial" font-size="14" lengthAdjust="spacing" textLength="64.9756" x="584.1621" y="916.6045">solid &#8212;&#8212;</text><text fill="#000000" font-family="Arial" font-size="14" lengthAdjust="spacing" textLength="235.1631" x="693.6396" y="916.6045">Enforced FK constraint in schema</text><text fill="#000000" font-family="Arial" font-size="14" lengthAdjust="spacing" textLength="86.7344" x="584.1621" y="932.9014">dashed &#183;&#183;&#183;&#183;&#183;&#183;&#183;</text><text fill="#000000" font-family="Arial" font-size="14" lengthAdjust="spacing" textLength="254.707" x="693.6396" y="932.9014">Soft reference (TEXT column, no FK)</text><line style="stroke:#000000;stroke-width:1;" x1="579.7119" x2="957.2471" y1="887.3125" y2="887.3125"/><line style="stroke:#000000;stroke-width:1;" x1="579.7119" x2="957.2471" y1="903.6094" y2="903.6094"/><line style="stroke:#000000;stroke-width:1;" x1="579.7119" x2="957.2471" y1="919.9063" y2="919.9063"/><line style="stroke:#000000;stroke-width:1;" x1="579.7119" x2="957.2471" y1="936.2031" y2="936.2031"/><line style="stroke:#000000;stroke-width:1;" x1="579.7119" x2="579.7119" y1="887.3125" y2="936.2031"/><line style="stroke:#000000;stroke-width:1;" x1="689.1895" x2="689.1895" y1="887.3125" y2="936.2031"/><line style="stroke:#000000;stroke-width:1;" x1="957.2471" x2="957.2471" y1="887.3125" y2="936.2031"/><text fill="#000000" font-family="Arial" font-size="14" lengthAdjust="spacing" textLength="4.4502" x="579.7119" y="951.1982">&#160;</text><text fill="#000000" font-family="Arial" font-size="14" font-weight="bold" lengthAdjust="spacing" textLength="262.8896" x="579.7119" y="967.4951">Cardinality (crow's foot notation)</text><text fill="#000000" font-family="Arial" font-size="14" font-weight="bold" lengthAdjust="spacing" textLength="58.2354" x="584.5859" y="985.792">Symbol</text><text fill="#000000" font-family="Arial" font-size="14" font-weight="bold" lengthAdjust="spacing" textLength="67.6279" x="652.5693" y="985.792">Meaning</text><text fill="#000000" font-family="Arial" font-size="14" lengthAdjust="spacing" textLength="9.4336" x="584.1621" y="1002.0889">||</text><text fill="#000000" font-family="Arial" font-size="14" lengthAdjust="spacing" textLength="81.5732" x="652.1455" y="1002.0889">Exactly one</text><text fill="#000000" font-family="Arial" font-size="14" lengthAdjust="spacing" textLength="13.2822" x="584.1621" y="1018.3857">|o</text><text fill="#000000" font-family="Arial" font-size="14" lengthAdjust="spacing" textLength="81.7988" x="652.1455" y="1018.3857">Zero or one</text><text fill="#000000" font-family="Arial" font-size="14" lengthAdjust="spacing" textLength="17.4727" x="584.1621" y="1034.6826">o{</text><text fill="#000000" font-family="Arial" font-size="14" lengthAdjust="spacing" textLength="95.1221" x="652.1455" y="1034.6826">Zero or many</text><line style="stroke:#000000;stroke-width:1;" x1="579.7119" x2="760.6182" y1="972.7969" y2="972.7969"/><line style="stroke:#000000;stroke-width:1;" x1="579.7119" x2="760.6182" y1="989.0938" y2="989.0938"/><line style="stroke:#000000;stroke-width:1;" x1="579.7119" x2="760.6182" y1="1005.3906" y2="1005.3906"/><line style="stroke:#000000;stroke-width:1;" x1="579.7119" x2="760.6182" y1="1021.6875" y2="1021.6875"/><line style="stroke:#000000;stroke-width:1;" x1="579.7119" x2="760.6182" y1="1037.9844" y2="1037.9844"/><line style="stroke:#000000;stroke-width:1;" x1="579.7119" x2="579.7119" y1="972.7969" y2="1037.9844"/><line style="stroke:#000000;stroke-width:1;" x1="647.6953" x2="647.6953" y1="972.7969" y2="1037.9844"/><line style="stroke:#000000;stroke-width:1;" x1="760.6182" x2="760.6182" y1="972.7969" y2="1037.9844"/></g><!--SRC=[rLVTRY8t5BxdAOwIYu2KdrsfKgiL6ubDXbswG6Y6L6srqiZCUC2DnwQs2JiDaVe8lMYVfVTzb7sI7jl3CB0Gcak6H0AV7v_l-9pFPqxWozz_7j1VxGJWVVVcNQiBuV3dRX02r0bdOq4Jc3CpWPWJhQE4aR4YsVbqbl46sXmOI7tFn9GW0D0JaiWv4sD82TUq8abeIcRSjAKmVP9HQ2b6U4NEcQ0cdrAGoanaHT1IIiwl99SAZhznJmqprDGcv_GIHbp6zy0qc0a5HJaZ8qvXJd8m4cAqcYa8Rg-12iCCenfDwolVRZM7H_X0IKBLEnBVZvMSYSJlzsGTus59XSSroc70YJ1tlMwZLcnVWz85VWNOT72Slh8V9-iYGB_gd-FltEDaDYiX-vqM8dZzkbnsoIeUdpE09_mNqj1TkxRRxUlWsvVl-chFhisB0lRXbIZsOT0VTeQT83oyu6j5aHtDD5Nw28W6zysTFqjWxNa3dVumU1_SGhCv-7XfQ_Jip1PCvKYztZ3uQOXAT_tE3tV1AVHlXj2_wtQToHHfQIvL4as8dfJQA4Z9WrJCq2XHx86gbI1Mb1YQHCIK_Zkz81osUWEKpgR9JkdJ2Y2NOoOY-e2_FSxgmWRSNK1jQYAdLjLeVzn0w3tRU7R4uW7wC8hlMnA-Amfl4SKoeNkJdSuuZyhpAJDgA5BKndbzbSeTmHk5fE1ZzrzV47fEYTgkjHQrOvn8pB8Hbi5ApNAYFQuIK8bzpJf6QwFoJN0nK_6CcUYUvY_6hAdMJ0gFUldZHJsoZlmPx0xXjcPQqofYM1R17YqcKbdHgdyVtlGRDizKuyMfer-r5Dlad4nNmYroGpdDAEQwKDgK_y_MrBc88srGrUUt_Eaol9cvvx9SJOlU4PHrZp7vnj-X4yjiogcXM_TqYT4cSd4IKpceAhX3lCUkRdg3cx0p3C2J2Ixqm-5j2u4VuDtcvfYHD4Pc8DE2hF3m2cnrMrYd5KPfO44cRlgfRTekMtwxzUbQtLNT768Ht0RTrh231_-XCx2d3g7ao79sYiOghyENF_x2FsZ0MvnGKwcmcQ3z4Lj6Q4mnG_9Y0dGyeHcnrjTuozEbUHt-_ST_dBsMgK4IIgcYs9DGTqs8e_Ki4wUOGNHxWAyi675RgepmZQpKTPd7HiqFMOl5sPbyN9z4ti2HeZ7EH_h8kWfjYYx0ChZpMMPBGprPfNRfyKcUdyj5ELIWisAkGc_5RRrOeChZwXPpEXEfSIogLQYtK2kCd58idLD7o38zEipoxYA5zwyFBtHEnvPN51jF3D9GStJPPfGdq2Fg7a-bUJ6oj-3YRR6ml9Ni0YN2lZVlUXRMhhX8LuimK2mZE4RvUUavm_Qw8LO_nLTRPrYlDC2IBHgbeUVImdW1TuBzDgFLdjcrushASOOz8d3Ga1Yi9uzTeVhxlHBgZuJZXjgurt0SFQpy3BiBQJp1wUQpGKEVx5lAYR7zCc5Jz-fRoNXeNrqhU-rF-IeaJme5fwu22_OmQyL3mG9BOYterKh2_VGA9S0heX8c2BSJMJrMSdwY8PNIs9lC8MzK0EVPIFAlWVg0FYq-BGeKdqbiU0xINHsbM1OWVw5AWbJhOkIS3N56HEx4MF- -2_u3]--></g></svg>