<svg xmlns="http://www.w3.org/2000/svg" xmlns:xlink="http://www.w3.org/1999/xlink" contentStyleType="text/css" data-diagram-type="STATE" height="566px" preserveAspectRatio="none" style="width:580px;height:566px;background:#FFFFFF;" version="1.1" viewBox="0 0 580 566" width="580px" zoomAndPan="magnify"><defs/><g><g id="Login"><rect fill="#F0F0F0" height="64.2344" rx="12.5" ry="12.5" style="stroke:#888888;stroke-width:0.5;" width="191.0938" x="216.71" y="87"/><line style="stroke:#888888;stroke-width:0.5;" x1="216.71" x2="407.8038" y1="113.2969" y2="113.2969"/><text fill="#000000" font-family="Arial" font-size="14" lengthAdjust="spacing" textLength="38.0146" x="293.2496" y="104.9951">Login</text><text fill="#000000" font-family="Arial" font-size="12" lengthAdjust="spacing" textLength="171.0938" x="221.71" y="129.4355">Enter username + password</text><text fill="#000000" font-family="Arial" font-size="12" lengthAdjust="spacing" textLength="151.6934" x="221.71" y="143.4043">Optional: favourite driver</text></g><g id="Idle"><rect fill="#F0F0F0" height="50.2656" rx="12.5" ry="12.5" style="stroke:#888888;stroke-width:0.5;" width="209.7207" x="41.21" y="228"/><line style="stroke:#888888;stroke-width:0.5;" x1="41.21" x2="250.9307" y1="254.2969" y2="254.2969"/><text fill="#000000" font-family="Arial" font-size="14" lengthAdjust="spacing" textLength="25.5186" x="133.3111" y="245.9951">Idle</text><text fill="#000000" font-family="Arial" font-size="12" lengthAdjust="spacing" textLength="189.7207" x="46.21" y="270.4355">Sidebar visible &#183; no data loaded</text></g><g id="RaceOverview"><rect fill="#F0F0F0" height="64.2344" rx="12.5" ry="12.5" style="stroke:#888888;stroke-width:0.5;" width="194.7676" x="51.71" y="355"/><line style="stroke:#888888;stroke-width:0.5;" x1="51.71" x2="246.4776" y1="381.2969" y2="381.2969"/><text fill="#000000" font-family="Arial" font-size="14" lengthAdjust="spacing" textLength="104.9795" x="96.604" y="372.9951">Race Overview</text><text fill="#000000" font-family="Arial" font-size="12" lengthAdjust="spacing" textLength="174.7676" x="56.71" y="397.4355">Podium &#183; KPIs &#183; Position chart</text><text fill="#000000" font-family="Arial" font-size="12" lengthAdjust="spacing" textLength="158.5781" x="56.71" y="411.4043">Tyre strategy &#183; Team pace</text></g><g id="DriverAnalysis"><rect fill="#F0F0F0" height="64.2344" rx="12.5" ry="12.5" style="stroke:#888888;stroke-width:0.5;" width="216.043" x="190.21" y="496"/><line style="stroke:#888888;stroke-width:0.5;" x1="190.21" x2="406.253" y1="522.2969" y2="522.2969"/><text fill="#000000" font-family="Arial" font-size="14" lengthAdjust="spacing" textLength="105.2119" x="245.6255" y="513.9951">Driver Analysis</text><text fill="#000000" font-family="Arial" font-size="12" lengthAdjust="spacing" textLength="196.043" x="195.21" y="538.4355">Lap summary &#183; Telemetry charts</text><text fill="#000000" font-family="Arial" font-size="12" lengthAdjust="spacing" textLength="134.5254" x="195.21" y="552.4043">Track map &#183; Gear map</text></g><ellipse cx="312.21" cy="16" fill="#222222" rx="10" ry="10" style="stroke:#222222;stroke-width:1;"/><!--link *start* to Login--><g class="link" data-entity-1=".start." data-entity-2="Login" data-source-line="15" data-uid="lnk3" id="link_.start._Login"><path d="M312.21,26.32 C312.21,39.9 312.21,59.76 312.21,80.56" fill="none" id="*start*-to-Login" style="stroke:#444444;stroke-width:1;"/><polygon fill="#444444" points="312.21,86.56,316.21,77.56,312.21,81.56,308.21,77.56,312.21,86.56" style="stroke:#444444;stroke-width:1;"/></g><!--link Login to Login--><g class="link" data-entity-1="Login" data-entity-2="Login" data-source-line="17" data-uid="lnk4" id="link_Login_Login"><path d="M407.8,107.75 C428.07,108.89 442.71,112.64 442.71,119 C442.71,125.36 434.0605,128.7731 413.7905,129.9131" fill="none" id="Login-to-Login" style="stroke:#444444;stroke-width:1;"/><polygon fill="#444444" points="407.8,130.25,417.0104,133.7383,412.7921,129.9692,416.5612,125.7509,407.8,130.25" style="stroke:#444444;stroke-width:1;"/><text fill="#000000" font-family="Arial" font-size="13" lengthAdjust="spacing" textLength="119.1582" x="448.71" y="123.5669">invalid credentials</text></g><!--link Login to Idle--><g class="link" data-entity-1="Login" data-entity-2="Idle" data-source-line="18" data-uid="lnk5" id="link_Login_Idle"><path d="M216.46,131.91 C186.81,140.61 157.24,155.52 139.21,181 C129.69,194.45 130.2509,207.3356 134.6209,222.1356" fill="none" id="Login-to-Idle" style="stroke:#444444;stroke-width:1;"/><polygon fill="#444444" points="136.32,227.89,137.6076,218.1257,134.9041,223.0947,129.9351,220.3911,136.32,227.89" style="stroke:#444444;stroke-width:1;"/><text fill="#000000" font-family="Arial" font-size="13" lengthAdjust="spacing" textLength="94.7324" x="140.21" y="194.0669">login / register</text></g><!--link Idle to Login--><g class="link" data-entity-1="Idle" data-entity-2="Login" data-source-line="25" data-uid="lnk10" id="link_Idle_Login"><path d="M193.82,227.9 C208.94,219.33 225.33,209.05 239.21,198 C256.47,184.25 269.5088,170.9453 282.7488,155.8153" fill="none" id="Idle-to-Login" style="stroke:#444444;stroke-width:1;"/><polygon fill="#444444" points="286.7,151.3,277.763,155.4388,283.4073,155.0627,283.7833,160.7071,286.7,151.3" style="stroke:#444444;stroke-width:1;"/><text fill="#000000" font-family="Arial" font-size="13" lengthAdjust="spacing" textLength="44.7383" x="258.21" y="194.0669">Logout</text></g><!--link Idle to RaceOverview--><g class="link" data-entity-1="Idle" data-entity-2="RaceOverview" data-source-line="20" data-uid="lnk6" id="link_Idle_RaceOverview"><path d="M45.25,278.04 C21.27,288.96 6,304.21 19.21,325 C27.23,337.63 33.5465,344.4928 46.3065,352.4928" fill="none" id="Idle-to-RaceOverview" style="stroke:#444444;stroke-width:1;"/><polygon fill="#444444" points="51.39,355.68,45.8895,347.5103,47.1537,353.024,41.64,354.2883,51.39,355.68" style="stroke:#444444;stroke-width:1;"/><text fill="#000000" font-family="Arial" font-size="13" lengthAdjust="spacing" textLength="85.1475" x="20.21" y="321.0669">Load Session</text></g><!--link RaceOverview to Idle--><g class="link" data-entity-1="RaceOverview" data-entity-2="Idle" data-source-line="21" data-uid="lnk7" id="link_RaceOverview_Idle"><path d="M147.38,354.98 C146.9,345.37 146.45,334.75 146.21,325 C145.82,309.47 145.7806,298.0299 145.8706,284.3199" fill="none" id="RaceOverview-to-Idle" style="stroke:#444444;stroke-width:1;"/><polygon fill="#444444" points="145.91,278.32,141.851,287.2935,145.8772,283.3199,149.8508,287.3461,145.91,278.32" style="stroke:#444444;stroke-width:1;"/><text fill="#000000" font-family="Arial" font-size="13" lengthAdjust="spacing" textLength="173.5132" x="147.21" y="321.0669">load new session (sidebar)</text></g><!--link RaceOverview to DriverAnalysis--><g class="link" data-entity-1="RaceOverview" data-entity-2="DriverAnalysis" data-source-line="22" data-uid="lnk8" id="link_RaceOverview_DriverAnalysis"><path d="M136.45,419.23 C132.35,434.53 130.95,452.51 140.21,466 C152.35,483.7 164.948,493.7868 184.568,502.7068" fill="none" id="RaceOverview-to-DriverAnalysis" style="stroke:#444444;stroke-width:1;"/><polygon fill="#444444" points="190.03,505.19,183.4925,497.8238,185.4783,503.1206,180.1815,505.1065,190.03,505.19" style="stroke:#444444;stroke-width:1;"/><text fill="#000000" font-family="Arial" font-size="13" lengthAdjust="spacing" textLength="113.1406" x="141.21" y="462.0669">select 1-3 drivers</text></g><!--link DriverAnalysis to RaceOverview--><g class="link" data-entity-1="DriverAnalysis" data-entity-2="RaceOverview" data-source-line="23" data-uid="lnk9" id="link_DriverAnalysis_RaceOverview"><path d="M287.68,495.84 C281.29,480.38 271.88,462.23 259.21,449 C248.1,437.41 239.4708,430.5104 225.4408,422.1904" fill="none" id="DriverAnalysis-to-RaceOverview" style="stroke:#444444;stroke-width:1;"/><polygon fill="#444444" points="220.28,419.13,225.9809,427.1612,224.5807,421.6804,230.0615,420.2801,220.28,419.13" style="stroke:#444444;stroke-width:1;"/><text fill="#000000" font-family="Arial" font-size="13" lengthAdjust="spacing" textLength="123.3477" x="274.21" y="462.0669">deselect all drivers</text></g><!--link RaceOverview to Login--><g class="link" data-entity-1="RaceOverview" data-entity-2="Login" data-source-line="26" data-uid="lnk11" id="link_RaceOverview_Login"><path d="M247.04,374.35 C277.04,365.66 306.92,350.69 325.21,325 C362.01,273.28 343.4312,200.0075 327.4212,156.7175" fill="none" id="RaceOverview-to-Login" style="stroke:#444444;stroke-width:1;"/><polygon fill="#444444" points="325.34,151.09,324.7102,160.9187,327.0743,155.7796,332.2135,158.1437,325.34,151.09" style="stroke:#444444;stroke-width:1;"/><text fill="#000000" font-family="Arial" font-size="13" lengthAdjust="spacing" textLength="44.7383" x="347.21" y="257.5669">Logout</text></g><!--link DriverAnalysis to Login--><g class="link" data-entity-1="DriverAnalysis" data-entity-2="Login" data-source-line="27" data-uid="lnk12" id="link_DriverAnalysis_Login"><path d="M377.07,495.99 C388.71,487.97 399.15,478.09 406.21,466 C459.54,374.62 436.19,327.5 400.21,228 C389.51,198.43 371.211,175.3041 351.621,155.5141" fill="none" id="DriverAnalysis-to-Login" style="stroke:#444444;stroke-width:1;"/><polygon fill="#444444" points="347.4,151.25,350.8888,160.4602,350.9175,154.8034,356.5743,154.8322,347.4,151.25" style="stroke:#444444;stroke-width:1;"/><text fill="#000000" font-family="Arial" font-size="13" lengthAdjust="spacing" textLength="44.7383" x="433.21" y="321.0669">Logout</text></g><!--SRC=[TL9DRzim3BthLn3TPHy8jc43DkGm85kReLZG1arlQm-inRX2PIaWvGJvPRllbusIayvD7FfWcdplaNgoFBcmGiO6v15jtBXGmnAza97dZgKbjZvDOqXNs11CsA7lzIVCSVCZ-iZmwdE9NdEHCD7to9Pu1_bQuWY2rLFDiGrs1rj-oCyXxEGILt50OpgTdbzyEKJrbwbA62DP7CvciNRX352WP326Yv28eHNYaCU-WnMAR5JYBbolaei1_LWTMyUMdIfOTclYlTobzLJKSg9Y2sVf0HdMJjo3Llx-WH31OaBm4ItPFV46Au9hLLexsXI5NDaNL6aUhMkRBF1hVYdvFO_YyZvGFIAdkt2xPG99h7hrDWDkIGrOgSn-o7dP5IPwXAquAMEwshwaWsQu0ccR1dadugcXf1zbZEWSLjUXKPYsVvAUJdDZVh-zXrwCHjywIutfd3tk_2-DmOKrUcUXOh8Kabwr3F6AhNsUBvZtm5GxqOipvW2IMI-ipAoPUWyB4b7xp47tn1Wb1ErBHuBNqjtico7waQUY9bO9Feu-xVuNCGUOmJKjxOZe_JDnw817TceXjcbejrFGWNrEGFy1]--></g></svg>