<svg xmlns="http://www.w3.org/2000/svg" xmlns:xlink="http://www.w3.org/1999/xlink" contentStyleType="text/css" data-diagram-type="SEQUENCE" height="1237px" preserveAspectRatio="none" style="width:1627px;height:1237px;background:#FFFFFF;" version="1.1" viewBox="0 0 1627 1237" width="1627px" zoomAndPan="magnify"><defs/><g><rect fill="none" height="148.4688" style="stroke:#000000;stroke-width:1.5;" width="475.9199" x="549.6543" y="362.7891"/><rect fill="none" height="267" style="stroke:#000000;stroke-width:1.5;" width="804.457" x="231.1172" y="612.6563"/><rect fill="none" height="148.4688" style="stroke:#000000;stroke-width:1.5;" width="475.9199" x="549.6543" y="695.0547"/><g><title>User</title><rect fill="#000000" fill-opacity="0.00000" height="1059.125" width="8" x="19.9551" y="83.5938"/><line style="stroke:#777777;stroke-width:0.5;stroke-dasharray:5,5;" x1="23" x2="23" y1="83.5938" y2="1142.7188"/></g><g><title>Dash UI .</title><rect fill="#000000" fill-opacity="0.00000" height="1059.125" width="8" x="277.4663" y="83.5938"/><line style="stroke:#777777;stroke-width:0.5;stroke-dasharray:5,5;" x1="281.1172" x2="281.1172" y1="83.5938" y2="1142.7188"/></g><g><title>AuthService</title><rect fill="#000000" fill-opacity="0.00000" height="1059.125" width="8" x="496.3774" y="83.5938"/><line style="stroke:#777777;stroke-width:0.5;stroke-dasharray:5,5;" x1="500.1006" x2="500.1006" y1="83.5938" y2="1142.7188"/></g><g><title>SessionService</title><rect fill="#000000" fill-opacity="0.00000" height="1059.125" width="8" x="615.2329" y="83.5938"/><line style="stroke:#777777;stroke-width:0.5;stroke-dasharray:5,5;" x1="618.6543" x2="618.6543" y1="83.5938" y2="1142.7188"/></g><g><title>SQLite</title><rect fill="#000000" fill-opacity="0.00000" height="1059.125" width="8" x="813.5459" y="83.5938"/><line style="stroke:#777777;stroke-width:0.5;stroke-dasharray:5,5;" x1="817.2539" x2="817.2539" y1="83.5938" y2="1142.7188"/></g><g><title>FastF1 Data Layer</title><rect fill="#000000" fill-opacity="0.00000" height="1059.125" width="8" x="940.7061" y="83.5938"/><line style="stroke:#777777;stroke-width:0.5;stroke-dasharray:5,5;" x1="943.8379" x2="943.8379" y1="83.5938" y2="1142.7188"/></g><g><title>TelemetryService</title><rect fill="#000000" fill-opacity="0.00000" height="1059.125" width="8" x="1090.1694" y="83.5938"/><line style="stroke:#777777;stroke-width:0.5;stroke-dasharray:5,5;" x1="1093.5742" x2="1093.5742" y1="83.5938" y2="1142.7188"/></g><g><title>Visualization</title><rect fill="#000000" fill-opacity="0.00000" height="1059.125" width="8" x="1220.1333" y="83.5938"/><line style="stroke:#777777;stroke-width:0.5;stroke-dasharray:5,5;" x1="1223.7646" x2="1223.7646" y1="83.5938" y2="1142.7188"/></g><g><title>Client-side</title><rect fill="#000000" fill-opacity="0.00000" height="1059.125" width="8" x="1325.6348" y="83.5938"/><line style="stroke:#777777;stroke-width:0.5;stroke-dasharray:5,5;" x1="1329.502" x2="1329.502" y1="83.5938" y2="1142.7188"/></g><g class="participant participant-head" data-participant="User"><text fill="#000000" font-family="sans-serif" font-size="14" lengthAdjust="spacing" textLength="31.9102" x="5" y="80.292">User</text><ellipse cx="23.9551" cy="15.7969" fill="#E2E2F0" rx="8" ry="8" style="stroke:#181818;stroke-width:0.5;"/><path d="M23.9551,23.7969 L23.9551,50.7969 M10.9551,31.7969 L36.9551,31.7969 M23.9551,50.7969 L10.9551,65.7969 M23.9551,50.7969 L36.9551,65.7969" fill="none" style="stroke:#181818;stroke-width:0.5;"/></g><g class="participant participant-tail" data-participant="User"><text fill="#000000" font-family="sans-serif" font-size="14" lengthAdjust="spacing" textLength="31.9102" x="5" y="1154.7139">User</text><ellipse cx="23.9551" cy="1166.5156" fill="#E2E2F0" rx="8" ry="8" style="stroke:#181818;stroke-width:0.5;"/><path d="M23.9551,1174.5156 L23.9551,1201.5156 M10.9551,1182.5156 L36.9551,1182.5156 M23.9551,1201.5156 L10.9551,1216.5156 M23.9551,1201.5156 L36.9551,1216.5156" fill="none" style="stroke:#181818;stroke-width:0.5;"/></g><g class="participant participant-head" data-participant="Dash"><rect fill="#E7F6FA" height="46.5938" rx="2.5" ry="2.5" style="stroke:#1B6A84;stroke-width:0.5;" width="80.6982" x="241.1172" y="36"/><text fill="#000000" font-family="sans-serif" font-size="14" lengthAdjust="spacing" textLength="63.5195" x="249.7065" y="55.9951">Dash UI /</text><text fill="#000000" font-family="sans-serif" font-size="14" lengthAdjust="spacing" textLength="66.6982" x="248.1172" y="72.292">Callbacks</text></g><g class="participant participant-tail" data-participant="Dash"><rect fill="#E7F6FA" height="46.5938" rx="2.5" ry="2.5" style="stroke:#1B6A84;stroke-width:0.5;" width="80.6982" x="241.1172" y="1141.7188"/><text fill="#000000" font-family="sans-serif" font-size="14" lengthAdjust="spacing" textLength="63.5195" x="249.7065" y="1161.7139">Dash UI /</text><text fill="#000000" font-family="sans-serif" font-size="14" lengthAdjust="spacing" textLength="66.6982" x="248.1172" y="1178.0107">Callbacks</text></g><g class="participant participant-head" data-participant="Auth"><rect fill="#E7F6FA" height="30.2969" rx="2.5" ry="2.5" style="stroke:#1B6A84;stroke-width:0.5;" width="98.5537" x="451.1006" y="52.2969"/><text fill="#000000" font-family="sans-serif" font-size="14" lengthAdjust="spacing" textLength="84.5537" x="458.1006" y="72.292">AuthService</text></g><g class="participant participant-tail" data-participant="Auth"><rect fill="#E7F6FA" height="30.2969" rx="2.5" ry="2.5" style="stroke:#1B6A84;stroke-width:0.5;" width="98.5537" x="451.1006" y="1141.7188"/><text fill="#000000" font-family="sans-serif" font-size="14" lengthAdjust="spacing" textLength="84.5537" x="458.1006" y="1161.7139">AuthService</text></g><g class="participant participant-head" data-participant="Service"><rect fill="#E7F6FA" height="30.2969" rx="2.5" ry="2.5" style="stroke:#1B6A84;stroke-width:0.5;" width="119.1572" x="559.6543" y="52.2969"/><text fill="#000000" font-family="sans-serif" font-size="14" lengthAdjust="spacing" textLength="105.1572" x="566.6543" y="72.292">SessionService</text></g><g class="participant participant-tail" data-participant="Service"><rect fill="#E7F6FA" height="30.2969" rx="2.5" ry="2.5" style="stroke:#1B6A84;stroke-width:0.5;" width="119.1572" x="559.6543" y="1141.7188"/><text fill="#000000" font-family="sans-serif" font-size="14" lengthAdjust="spacing" textLength="105.1572" x="566.6543" y="1161.7139">SessionService</text></g><g class="participant participant-head" data-participant="DB"><text fill="#000000" font-family="sans-serif" font-size="14" lengthAdjust="spacing" textLength="45.6982" x="791.6968" y="63.9951">SQLite</text><text fill="#000000" font-family="sans-serif" font-size="14" lengthAdjust="spacing" textLength="86.584" x="771.2539" y="80.292">Repositories</text><path d="M799.5459,15 C799.5459,5 817.5459,5 817.5459,5 C817.5459,5 835.5459,5 835.5459,15 L835.5459,41 C835.5459,51 817.5459,51 817.5459,51 C817.5459,51 799.5459,51 799.5459,41 L799.5459,15" fill="#E2E2F0" style="stroke:#181818;stroke-width:0.5;"/><path d="M799.5459,15 C799.5459,25 817.5459,25 817.5459,25 C817.5459,25 835.5459,25 835.5459,15" fill="none" style="stroke:#181818;stroke-width:0.5;"/></g><g class="participant participant-tail" data-participant="DB"><text fill="#000000" font-family="sans-serif" font-size="14" lengthAdjust="spacing" textLength="45.6982" x="791.6968" y="1154.7139">SQLite</text><text fill="#000000" font-family="sans-serif" font-size="14" lengthAdjust="spacing" textLength="86.584" x="771.2539" y="1171.0107">Repositories</text><path d="M799.5459,1184.3125 C799.5459,1174.3125 817.5459,1174.3125 817.5459,1174.3125 C817.5459,1174.3125 835.5459,1174.3125 835.5459,1184.3125 L835.5459,1210.3125 C835.5459,1220.3125 817.5459,1220.3125 817.5459,1220.3125 C817.5459,1220.3125 799.5459,1220.3125 799.5459,1210.3125 L799.5459,1184.3125" fill="#E2E2F0" style="stroke:#181818;stroke-width:0.5;"/><path d="M799.5459,1184.3125 C799.5459,1194.3125 817.5459,1194.3125 817.5459,1194.3125 C817.5459,1194.3125 835.5459,1194.3125 835.5459,1184.3125" fill="none" style="stroke:#181818;stroke-width:0.5;"/></g><g class="participant participant-head" data-participant="FastF1"><rect fill="#E7F6FA" height="46.5938" rx="2.5" ry="2.5" style="stroke:#1B6A84;stroke-width:0.5;" width="141.7363" x="873.8379" y="36"/><text fill="#000000" font-family="sans-serif" font-size="14" lengthAdjust="spacing" textLength="127.7363" x="880.8379" y="55.9951">FastF1 Data Layer</text><text fill="#000000" font-family="sans-serif" font-size="14" lengthAdjust="spacing" textLength="108.4658" x="890.4731" y="72.292">+ FastF1 cache</text></g><g class="participant participant-tail" data-participant="FastF1"><rect fill="#E7F6FA" height="46.5938" rx="2.5" ry="2.5" style="stroke:#1B6A84;stroke-width:0.5;" width="141.7363" x="873.8379" y="1141.7188"/><text fill="#000000" font-family="sans-serif" font-size="14" lengthAdjust="spacing" textLength="127.7363" x="880.8379" y="1161.7139">FastF1 Data Layer</text><text fill="#000000" font-family="sans-serif" font-size="14" lengthAdjust="spacing" textLength="108.4658" x="890.4731" y="1178.0107">+ FastF1 cache</text></g><g class="participant participant-head" data-participant="Metrics"><rect fill="#E7F6FA" height="30.2969" rx="2.5" ry="2.5" style="stroke:#1B6A84;stroke-width:0.5;" width="137.1904" x="1025.5742" y="52.2969"/><text fill="#000000" font-family="sans-serif" font-size="14" lengthAdjust="spacing" textLength="123.1904" x="1032.5742" y="72.292">TelemetryService</text></g><g class="participant participant-tail" data-participant="Metrics"><rect fill="#E7F6FA" height="30.2969" rx="2.5" ry="2.5" style="stroke:#1B6A84;stroke-width:0.5;" width="137.1904" x="1025.5742" y="1141.7188"/><text fill="#000000" font-family="sans-serif" font-size="14" lengthAdjust="spacing" textLength="123.1904" x="1032.5742" y="1161.7139">TelemetryService</text></g><g class="participant participant-head" data-participant="Viz"><rect fill="#E7F6FA" height="46.5938" rx="2.5" ry="2.5" style="stroke:#1B6A84;stroke-width:0.5;" width="102.7373" x="1172.7646" y="36"/><text fill="#000000" font-family="sans-serif" font-size="14" lengthAdjust="spacing" textLength="88.7373" x="1179.7646" y="55.9951">Visualization</text><text fill="#000000" font-family="sans-serif" font-size="14" lengthAdjust="spacing" textLength="39.0332" x="1204.6167" y="72.292">Layer</text></g><g class="participant participant-tail" data-participant="Viz"><rect fill="#E7F6FA" height="46.5938" rx="2.5" ry="2.5" style="stroke:#1B6A84;stroke-width:0.5;" width="102.7373" x="1172.7646" y="1141.7188"/><text fill="#000000" font-family="sans-serif" font-size="14" lengthAdjust="spacing" textLength="88.7373" x="1179.7646" y="1161.7139">Visualization</text><text fill="#000000" font-family="sans-serif" font-size="14" lengthAdjust="spacing" textLength="39.0332" x="1204.6167" y="1178.0107">Layer</text></g><g class="participant participant-head" data-participant="JS"><rect fill="#E7F6FA" height="46.5938" rx="2.5" ry="2.5" style="stroke:#1B6A84;stroke-width:0.5;" width="88.2656" x="1285.502" y="36"/><text fill="#000000" font-family="sans-serif" font-size="14" lengthAdjust="spacing" textLength="74.2656" x="1292.502" y="55.9951">Client-side</text><text fill="#000000" font-family="sans-serif" font-size="14" lengthAdjust="spacing" textLength="59.2129" x="1300.0283" y="72.292">Hover JS</text></g><g class="participant participant-tail" data-participant="JS"><rect fill="#E7F6FA" height="46.5938" rx="2.5" ry="2.5" style="stroke:#1B6A84;stroke-width:0.5;" width="88.2656" x="1285.502" y="1141.7188"/><text fill="#000000" font-family="sans-serif" font-size="14" lengthAdjust="spacing" textLength="74.2656" x="1292.502" y="1161.7139">Client-side</text><text fill="#000000" font-family="sans-serif" font-size="14" lengthAdjust="spacing" textLength="59.2129" x="1300.0283" y="1178.0107">Hover JS</text></g><g class="message" data-participant-1="User" data-participant-2="Dash"><polygon fill="#333333" points="269.4663,110.7266,279.4663,114.7266,269.4663,118.7266,273.4663,114.7266" style="stroke:#333333;stroke-width:1;"/><line style="stroke:#333333;stroke-width:1;" x1="23.9551" x2="275.4663" y1="114.7266" y2="114.7266"/><text fill="#000000" font-family="sans-serif" font-size="13" lengthAdjust="spacing" textLength="94.7324" x="30.9551" y="109.6606">login / register</text></g><g class="message" data-participant-1="Dash" data-participant-2="Auth"><polygon fill="#333333" points="488.3774,139.8594,498.3774,143.8594,488.3774,147.8594,492.3774,143.8594" style="stroke:#333333;stroke-width:1;"/><line style="stroke:#333333;stroke-width:1;" x1="281.4663" x2="494.3774" y1="143.8594" y2="143.8594"/><text fill="#000000" font-family="sans-serif" font-size="13" lengthAdjust="spacing" textLength="115.0195" x="288.4663" y="138.7935">login() / register()</text></g><g class="message" data-participant-1="Auth" data-participant-2="DB"><polygon fill="#333333" points="805.5459,168.9922,815.5459,172.9922,805.5459,176.9922,809.5459,172.9922" style="stroke:#333333;stroke-width:1;"/><line style="stroke:#333333;stroke-width:1;" x1="500.3774" x2="811.5459" y1="172.9922" y2="172.9922"/><text fill="#000000" font-family="sans-serif" font-size="13" lengthAdjust="spacing" textLength="164.9756" x="507.3774" y="167.9263">find_by_name() / create()</text></g><g class="message" data-participant-1="DB" data-participant-2="Auth"><polygon fill="#333333" points="511.3774,198.125,501.3774,202.125,511.3774,206.125,507.3774,202.125" style="stroke:#333333;stroke-width:1;"/><line style="stroke:#333333;stroke-width:1;stroke-dasharray:2,2;" x1="505.3774" x2="816.5459" y1="202.125" y2="202.125"/><text fill="#000000" font-family="sans-serif" font-size="13" lengthAdjust="spacing" textLength="130.0063" x="517.3774" y="197.0591">user record or None</text></g><g class="message" data-participant-1="Auth" data-participant-2="Dash"><polygon fill="#333333" points="292.4663,227.2578,282.4663,231.2578,292.4663,235.2578,288.4663,231.2578" style="stroke:#333333;stroke-width:1;"/><line style="stroke:#333333;stroke-width:1;stroke-dasharray:2,2;" x1="286.4663" x2="499.3774" y1="231.2578" y2="231.2578"/><text fill="#000000" font-family="sans-serif" font-size="13" lengthAdjust="spacing" textLength="194.9111" x="298.4663" y="226.1919">(success, message, user_dict)</text></g><g class="message" data-participant-1="Dash" data-participant-2="User"><polygon fill="#333333" points="34.9551,256.3906,24.9551,260.3906,34.9551,264.3906,30.9551,260.3906" style="stroke:#333333;stroke-width:1;"/><line style="stroke:#333333;stroke-width:1;stroke-dasharray:2,2;" x1="28.9551" x2="280.4663" y1="260.3906" y2="260.3906"/><text fill="#000000" font-family="sans-serif" font-size="13" lengthAdjust="spacing" textLength="106.7295" x="40.9551" y="255.3247">show dashboard</text></g><g class="message" data-participant-1="User" data-participant-2="Dash"><polygon fill="#333333" points="269.4663,285.5234,279.4663,289.5234,269.4663,293.5234,273.4663,289.5234" style="stroke:#333333;stroke-width:1;"/><line style="stroke:#333333;stroke-width:1;" x1="23.9551" x2="275.4663" y1="289.5234" y2="289.5234"/><text fill="#000000" font-family="sans-serif" font-size="13" lengthAdjust="spacing" textLength="173.437" x="30.9551" y="284.4575">select year, event, session</text></g><g class="message" data-participant-1="Dash" data-participant-2="Service"><polygon fill="#333333" points="607.2329,314.6563,617.2329,318.6563,607.2329,322.6563,611.2329,318.6563" style="stroke:#333333;stroke-width:1;"/><line style="stroke:#333333;stroke-width:1;" x1="281.4663" x2="613.2329" y1="318.6563" y2="318.6563"/><text fill="#000000" font-family="sans-serif" font-size="13" lengthAdjust="spacing" textLength="157.9741" x="288.4663" y="313.5903">load_session_overview()</text></g><g class="message" data-participant-1="Service" data-participant-2="DB"><polygon fill="#333333" points="805.5459,343.7891,815.5459,347.7891,805.5459,351.7891,809.5459,347.7891" style="stroke:#333333;stroke-width:1;"/><line style="stroke:#333333;stroke-width:1;" x1="619.2329" x2="811.5459" y1="347.7891" y2="347.7891"/><text fill="#000000" font-family="sans-serif" font-size="13" lengthAdjust="spacing" textLength="174.313" x="626.2329" y="342.7231">load stored session bundle</text></g><path d="M549.6543,362.7891 L614.0972,362.7891 L614.0972,369.9219 L604.0972,379.9219 L549.6543,379.9219 L549.6543,362.7891" fill="#EEEEEE" style="stroke:#000000;stroke-width:1.5;"/><rect fill="none" height="148.4688" style="stroke:#000000;stroke-width:1.5;" width="475.9199" x="549.6543" y="362.7891"/><text fill="#000000" font-family="sans-serif" font-size="13" font-weight="bold" lengthAdjust="spacing" textLength="19.4429" x="564.6543" y="375.856">alt</text><text fill="#000000" font-family="sans-serif" font-size="11" font-weight="bold" lengthAdjust="spacing" textLength="143.5156" x="629.0972" y="374.9995">[overview exists in DB]</text><g class="message" data-participant-1="DB" data-participant-2="Service"><polygon fill="#333333" points="630.2329,397.0547,620.2329,401.0547,630.2329,405.0547,626.2329,401.0547" style="stroke:#333333;stroke-width:1;"/><line style="stroke:#333333;stroke-width:1;stroke-dasharray:2,2;" x1="624.2329" x2="816.5459" y1="401.0547" y2="401.0547"/><text fill="#000000" font-family="sans-serif" font-size="13" lengthAdjust="spacing" textLength="135.1479" x="636.2329" y="395.9888">stored results + laps</text></g><line style="stroke:#000000;stroke-width:1;stroke-dasharray:2,2;" x1="549.6543" x2="1025.5742" y1="410.0547" y2="410.0547"/><text fill="#000000" font-family="sans-serif" font-size="11" font-weight="bold" lengthAdjust="spacing" textLength="117.8633" x="554.6543" y="420.2651">[overview missing]</text><g class="message" data-participant-1="Service" data-participant-2="FastF1"><polygon fill="#333333" points="932.7061,440.9922,942.7061,444.9922,932.7061,448.9922,936.7061,444.9922" style="stroke:#333333;stroke-width:1;"/><line style="stroke:#333333;stroke-width:1;" x1="619.2329" x2="938.7061" y1="444.9922" y2="444.9922"/><text fill="#000000" font-family="sans-serif" font-size="13" lengthAdjust="spacing" textLength="157.9106" x="626.2329" y="439.9263">load_quick(laps, results)</text></g><g class="message" data-participant-1="FastF1" data-participant-2="Service"><polygon fill="#333333" points="630.2329,470.125,620.2329,474.125,630.2329,478.125,626.2329,474.125" style="stroke:#333333;stroke-width:1;"/><line style="stroke:#333333;stroke-width:1;stroke-dasharray:2,2;" x1="624.2329" x2="943.7061" y1="474.125" y2="474.125"/><text fill="#000000" font-family="sans-serif" font-size="13" lengthAdjust="spacing" textLength="159.9038" x="636.2329" y="469.0591">session overview bundle</text></g><g class="message" data-participant-1="Service" data-participant-2="DB"><polygon fill="#333333" points="805.5459,499.2578,815.5459,503.2578,805.5459,507.2578,809.5459,503.2578" style="stroke:#333333;stroke-width:1;"/><line style="stroke:#333333;stroke-width:1;" x1="619.2329" x2="811.5459" y1="503.2578" y2="503.2578"/><text fill="#000000" font-family="sans-serif" font-size="13" lengthAdjust="spacing" textLength="124.1602" x="626.2329" y="498.1919">save results + laps</text></g><g class="message" data-participant-1="Service" data-participant-2="Dash"><polygon fill="#333333" points="292.4663,535.3906,282.4663,539.3906,292.4663,543.3906,288.4663,539.3906" style="stroke:#333333;stroke-width:1;"/><line style="stroke:#333333;stroke-width:1;stroke-dasharray:2,2;" x1="286.4663" x2="618.2329" y1="539.3906" y2="539.3906"/><text fill="#000000" font-family="sans-serif" font-size="13" lengthAdjust="spacing" textLength="121.7671" x="298.4663" y="534.3247">SessionLoadResult</text></g><g class="message" data-participant-1="Dash" data-participant-2="User"><polygon fill="#333333" points="34.9551,564.5234,24.9551,568.5234,34.9551,572.5234,30.9551,568.5234" style="stroke:#333333;stroke-width:1;"/><line style="stroke:#333333;stroke-width:1;stroke-dasharray:2,2;" x1="28.9551" x2="280.4663" y1="568.5234" y2="568.5234"/><text fill="#000000" font-family="sans-serif" font-size="13" lengthAdjust="spacing" textLength="233.5112" x="40.9551" y="563.4575">results, lap overview, driver options</text></g><g class="message" data-participant-1="User" data-participant-2="Dash"><polygon fill="#333333" points="269.4663,593.6563,279.4663,597.6563,269.4663,601.6563,273.4663,597.6563" style="stroke:#333333;stroke-width:1;"/><line style="stroke:#333333;stroke-width:1;" x1="23.9551" x2="275.4663" y1="597.6563" y2="597.6563"/><text fill="#000000" font-family="sans-serif" font-size="13" lengthAdjust="spacing" textLength="172.4658" x="30.9551" y="592.5903">select 1-3 drivers and laps</text></g><path d="M231.1172,612.6563 L307.7412,612.6563 L307.7412,619.7891 L297.7412,629.7891 L231.1172,629.7891 L231.1172,612.6563" fill="#EEEEEE" style="stroke:#000000;stroke-width:1.5;"/><rect fill="none" height="267" style="stroke:#000000;stroke-width:1.5;" width="804.457" x="231.1172" y="612.6563"/><text fill="#000000" font-family="sans-serif" font-size="13" font-weight="bold" lengthAdjust="spacing" textLength="31.624" x="246.1172" y="625.7231">loop</text><text fill="#000000" font-family="sans-serif" font-size="11" font-weight="bold" lengthAdjust="spacing" textLength="158.0229" x="322.7412" y="624.8667">[for each selected driver]</text><g class="message" data-participant-1="Dash" data-participant-2="Service"><polygon fill="#333333" points="607.2329,646.9219,617.2329,650.9219,607.2329,654.9219,611.2329,650.9219" style="stroke:#333333;stroke-width:1;"/><line style="stroke:#333333;stroke-width:1;" x1="281.4663" x2="613.2329" y1="650.9219" y2="650.9219"/><text fill="#000000" font-family="sans-serif" font-size="13" lengthAdjust="spacing" textLength="190.9185" x="288.4663" y="645.856">load_driver_telemetry(driver)</text></g><g class="message" data-participant-1="Service" data-participant-2="DB"><polygon fill="#333333" points="805.5459,676.0547,815.5459,680.0547,805.5459,684.0547,809.5459,680.0547" style="stroke:#333333;stroke-width:1;"/><line style="stroke:#333333;stroke-width:1;" x1="619.2329" x2="811.5459" y1="680.0547" y2="680.0547"/><text fill="#000000" font-family="sans-serif" font-size="13" lengthAdjust="spacing" textLength="137.8647" x="626.2329" y="674.9888">find stored telemetry</text></g><path d="M549.6543,695.0547 L614.0972,695.0547 L614.0972,702.1875 L604.0972,712.1875 L549.6543,712.1875 L549.6543,695.0547" fill="#EEEEEE" style="stroke:#000000;stroke-width:1.5;"/><rect fill="none" height="148.4688" style="stroke:#000000;stroke-width:1.5;" width="475.9199" x="549.6543" y="695.0547"/><text fill="#000000" font-family="sans-serif" font-size="13" font-weight="bold" lengthAdjust="spacing" textLength="19.4429" x="564.6543" y="708.1216">alt</text><text fill="#000000" font-family="sans-serif" font-size="11" font-weight="bold" lengthAdjust="spacing" textLength="148.0649" x="629.0972" y="707.2651">[telemetry exists in DB]</text><g class="message" data-participant-1="DB" data-participant-2="Service"><polygon fill="#333333" points="630.2329,729.3203,620.2329,733.3203,630.2329,737.3203,626.2329,733.3203" style="stroke:#333333;stroke-width:1;"/><line style="stroke:#333333;stroke-width:1;stroke-dasharray:2,2;" x1="624.2329" x2="816.5459" y1="733.3203" y2="733.3203"/><text fill="#000000" font-family="sans-serif" font-size="13" lengthAdjust="spacing" textLength="142.3271" x="636.2329" y="728.2544">stored telemetry slice</text></g><line style="stroke:#000000;stroke-width:1;stroke-dasharray:2,2;" x1="549.6543" x2="1025.5742" y1="742.3203" y2="742.3203"/><text fill="#000000" font-family="sans-serif" font-size="11" font-weight="bold" lengthAdjust="spacing" textLength="122.4126" x="554.6543" y="752.5308">[telemetry missing]</text><g class="message" data-participant-1="Service" data-participant-2="FastF1"><polygon fill="#333333" points="932.7061,773.2578,942.7061,777.2578,932.7061,781.2578,936.7061,777.2578" style="stroke:#333333;stroke-width:1;"/><line style="stroke:#333333;stroke-width:1;" x1="619.2329" x2="938.7061" y1="777.2578" y2="777.2578"/><text fill="#000000" font-family="sans-serif" font-size="13" lengthAdjust="spacing" textLength="190.9185" x="626.2329" y="772.1919">load_driver_telemetry(driver)</text></g><g class="message" data-participant-1="FastF1" data-participant-2="Service"><polygon fill="#333333" points="630.2329,802.3906,620.2329,806.3906,630.2329,810.3906,626.2329,806.3906" style="stroke:#333333;stroke-width:1;"/><line style="stroke:#333333;stroke-width:1;stroke-dasharray:2,2;" x1="624.2329" x2="943.7061" y1="806.3906" y2="806.3906"/><text fill="#000000" font-family="sans-serif" font-size="13" lengthAdjust="spacing" textLength="96.916" x="636.2329" y="801.3247">telemetry data</text></g><g class="message" data-participant-1="Service" data-participant-2="DB"><polygon fill="#333333" points="805.5459,831.5234,815.5459,835.5234,805.5459,839.5234,809.5459,835.5234" style="stroke:#333333;stroke-width:1;"/><line style="stroke:#333333;stroke-width:1;" x1="619.2329" x2="811.5459" y1="835.5234" y2="835.5234"/><text fill="#000000" font-family="sans-serif" font-size="13" lengthAdjust="spacing" textLength="173.0435" x="626.2329" y="830.4575">merge and save telemetry</text></g><g class="message" data-participant-1="Service" data-participant-2="Dash"><polygon fill="#333333" points="292.4663,867.6563,282.4663,871.6563,292.4663,875.6563,288.4663,871.6563" style="stroke:#333333;stroke-width:1;"/><line style="stroke:#333333;stroke-width:1;stroke-dasharray:2,2;" x1="286.4663" x2="618.2329" y1="871.6563" y2="871.6563"/><text fill="#000000" font-family="sans-serif" font-size="13" lengthAdjust="spacing" textLength="147.1006" x="298.4663" y="866.5903">DriverTelemetryResult</text></g><g class="message" data-participant-1="Dash" data-participant-2="Metrics"><polygon fill="#333333" points="1082.1694,903.7891,1092.1694,907.7891,1082.1694,911.7891,1086.1694,907.7891" style="stroke:#333333;stroke-width:1;"/><line style="stroke:#333333;stroke-width:1;" x1="281.4663" x2="1088.1694" y1="907.7891" y2="907.7891"/><text fill="#000000" font-family="sans-serif" font-size="13" lengthAdjust="spacing" textLength="229.8994" x="288.4663" y="902.7231">compute lap tables and summaries</text></g><g class="message" data-participant-1="Metrics" data-participant-2="Dash"><polygon fill="#333333" points="292.4663,932.9219,282.4663,936.9219,292.4663,940.9219,288.4663,936.9219" style="stroke:#333333;stroke-width:1;"/><line style="stroke:#333333;stroke-width:1;stroke-dasharray:2,2;" x1="286.4663" x2="1093.1694" y1="936.9219" y2="936.9219"/><text fill="#000000" font-family="sans-serif" font-size="13" lengthAdjust="spacing" textLength="196.3203" x="298.4663" y="931.856">selected laps, KPIs, chart data</text></g><g class="message" data-participant-1="Dash" data-participant-2="Viz"><polygon fill="#333333" points="1212.1333,962.0547,1222.1333,966.0547,1212.1333,970.0547,1216.1333,966.0547" style="stroke:#333333;stroke-width:1;"/><line style="stroke:#333333;stroke-width:1;" x1="281.4663" x2="1218.1333" y1="966.0547" y2="966.0547"/><text fill="#000000" font-family="sans-serif" font-size="13" lengthAdjust="spacing" textLength="120.834" x="288.4663" y="960.9888">build Plotly figures</text></g><g class="message" data-participant-1="Viz" data-participant-2="Dash"><polygon fill="#333333" points="292.4663,991.1875,282.4663,995.1875,292.4663,999.1875,288.4663,995.1875" style="stroke:#333333;stroke-width:1;"/><line style="stroke:#333333;stroke-width:1;stroke-dasharray:2,2;" x1="286.4663" x2="1223.1333" y1="995.1875" y2="995.1875"/><text fill="#000000" font-family="sans-serif" font-size="13" lengthAdjust="spacing" textLength="226.1987" x="298.4663" y="990.1216">comparison charts and track maps</text></g><g class="message" data-participant-1="Dash" data-participant-2="User"><polygon fill="#333333" points="34.9551,1020.3203,24.9551,1024.3203,34.9551,1028.3203,30.9551,1024.3203" style="stroke:#333333;stroke-width:1;"/><line style="stroke:#333333;stroke-width:1;stroke-dasharray:2,2;" x1="28.9551" x2="280.4663" y1="1024.3203" y2="1024.3203"/><text fill="#000000" font-family="sans-serif" font-size="13" lengthAdjust="spacing" textLength="111.1221" x="40.9551" y="1019.2544">display diagrams</text></g><g class="message" data-participant-1="User" data-participant-2="JS"><polygon fill="#333333" points="1317.6348,1049.4531,1327.6348,1053.4531,1317.6348,1057.4531,1321.6348,1053.4531" style="stroke:#333333;stroke-width:1;"/><line style="stroke:#333333;stroke-width:1;" x1="23.9551" x2="1323.6348" y1="1053.4531" y2="1053.4531"/><text fill="#000000" font-family="sans-serif" font-size="13" lengthAdjust="spacing" textLength="177.8677" x="30.9551" y="1048.3872">hover over track map point</text></g><g class="message" data-participant-1="JS" data-participant-2="JS"><line style="stroke:#333333;stroke-width:1;" x1="1329.6348" x2="1371.6348" y1="1082.5859" y2="1082.5859"/><line style="stroke:#333333;stroke-width:1;" x1="1371.6348" x2="1371.6348" y1="1082.5859" y2="1095.5859"/><line style="stroke:#333333;stroke-width:1;" x1="1330.6348" x2="1371.6348" y1="1095.5859" y2="1095.5859"/><polygon fill="#333333" points="1340.6348,1091.5859,1330.6348,1095.5859,1340.6348,1099.5859,1336.6348,1095.5859" style="stroke:#333333;stroke-width:1;"/><text fill="#000000" font-family="sans-serif" font-size="13" lengthAdjust="spacing" textLength="283.8799" x="1336.6348" y="1077.52">match nearest distance per driver/lap trace</text></g><g class="message" data-participant-1="JS" data-participant-2="User"><polygon fill="#333333" points="34.9551,1120.7188,24.9551,1124.7188,34.9551,1128.7188,30.9551,1124.7188" style="stroke:#333333;stroke-width:1;"/><line style="stroke:#333333;stroke-width:1;stroke-dasharray:2,2;" x1="28.9551" x2="1328.6348" y1="1124.7188" y2="1124.7188"/><text fill="#000000" font-family="sans-serif" font-size="13" lengthAdjust="spacing" textLength="317.7954" x="40.9551" y="1119.6528">highlight corresponding points and show metrics</text></g><!--SRC=[nLRRRXit47tVhnWa3vKG2OQH8YdoKC1sQZIkMhXHaoS30iKThmXpoGt9bQi40VeH-S9yIG-vNErAkJobgI0lPCxXpE7C6SxwEsKQuKHDVYDAUwzCHRT2UoxyOE4tBHl9zAuWEdFEtbzORHqzV9m-M5oeMruem-VMbUoozMdwm7ejN51IDSA40y3f-PEpdtuy0WXvLpdRcZA3Vdbw-UJoh7XV5486BBpox8fcs40FdWk_eLSlwEJ6N0Yjr_3W7v3m50s7qBCsR9RijafoGiJ_3n5BzbvPCmRbtqKfWbWBpm3zkL21RynBRgnNOAKuHpm_z7OfVBWy1P4WQ25sx6xC8ygBKiXD5w1REDpv5skkERZTcCdlM53I7o9VAzyAhTwA0Dut9eL9wDVgxI7oGYisOUvL2Uw_sYqxkbecwDMoA7wWZn_-mJSb1JWbayUy-ls_HQmqpNzEPQHdf6sb39sGuqhv016aTTWZtzu-cOuGascHRD77EH2tofIhzMvbHCq9A1sBW9y5pFF1Kni3EvRGAa5nVrZ3sT70Pk9RAQ6L6TLuYefdQTkgL39CCpMWqncUeRViFPLON5lXob6kizme5cEh-1wd46NimU-NLm-boK0x5cv6l4NbPrXBjFOfpY9CMHRbAfjNFMjai4VqkOuuycWDBdjlj4PNQqOZwp0ScFz6hJoXj6WUebo98M3suTYt6hX7f4NZ2yODDVYe5GAO2jj7D7ARPSflMYNl9d7lhFSr1Jw3Za8U5oKJFt2VJkd5bZ-XPb3WFN38Soxr0cnUfXsVg2GxcaK_- -0pAfsAhMgRs8v-99xddI7qLyN_9vxJ-UDCqvCmPPU8GblRq2qwY77LPIXAsG5ZhJ-lhiw-sXzhqYrCFvF_sD6zGlRu0i0eiI4lHnhxiig6BLx7Avye2MrO7fJs5QrzvG1VKDmG80wPO-_fg3MxYbDoa-Y6qu9ZLDnenr2UJY7xMP9rb_33TM-4tddL5Sx1nkw_rL1MKb_zFDJ0LjgwQGCd-MFKQkuu-RQkHHonHG-T7mkGEydDwBVh5tZA3SPUbye-2eOXqEjMwPAkjGrw1_5KBLgkYAQHnyW2uJmkWEId8n4SNYkeZhe-RjjI-KOBb4w92gzBumuTJLpQf86h30OJtcI-yMJTz-NL4eowKEcnvqsDHUm2zXvLYu2sDBZtsOTuYY3YIrw3NPrWJr8Xu83Jjk746rLjDFu2akMmkx4ctJifH2vQd7XrLwz_0G00]--></g></svg>